#format: frame checksums
#version: 2
#hash: MD5
#extradata 0,                              42, e89deaac1c1a77d78033d7d9c66b8264
#tb 0: 1/61440
#media_type 0: video
#codec_id 0: ffv1
#dimensions 0: 320x180
#sar 0: 0/1
#stream#, dts,        pts, duration,     size, hash
0,          0,          0,     4096,     9895, a0c20f9a95030969d65d45f7301e080a
0,       4096,       4096,     4096,    10603, e400694601f463a2001784bcfb79a231
0,       8192,       8192,     4096,     9780, 30ecabee45640ef88a648e96d2b6967c
0,      12288,      12288,     4096,    10975, 29eaf5559b318f8812774edb851c7c06
0,      16384,      16384,     4096,    10509, e118415a605431e13ac0ceb92c3d9f08
0,      20480,      20480,     4096,    11159, 6fb9f9e707b3d6f3401f2950af10869a
0,      24576,      24576,     4096,    10471, 02d5c1e0e31fb3550e0d4acef1a0e4fb
0,      28672,      28672,     4096,    11217, c80546ee55b069afc43c608d7248e978
0,      32768,      32768,     4096,    11307, 9c4d805f7bc18f2bf45c987f312ec810
0,      36864,      36864,     4096,    10713, 704ba2a0e55727d89e80f32c69268900
0,      40960,      40960,     4096,    11229, 44dab1cead74596f84ce4a8cfee03265
0,      45056,      45056,     4096,    11342, d521928c1645733e7ff3ed79fa9de192
0,      49152,      49152,     4096,    10763, a33524ea6d63e6f0f7f1b43adf67428b
0,      53248,      53248,     4096,    11637, 70db0fbe72a6f0fb53058736a2cc926c
0,      57344,      57344,     4096,    11355, 91f09bafaf89ce0218a0ac6862f3d16c
0,      61440,      61440,     4096,    10985, bc0e6212c8f97c3e5bca022ef682a3c2
0,      65536,      65536,     4096,    10088, 11b0ea8fb9323c75df77682bc1cb06f1
0,      69632,      69632,     4096,    10752, e04dadeb1b562f64760ed4cf30c00402
0,      73728,      73728,     4096,    10896, dcee1819d309de1716b071969d80dafc
0,      77824,      77824,     4096,    10275, a1808a742207909cccfe1adc5991a925
0,      81920,      81920,     4096,    11160, 201b4517b2972190e31ac3fa8f6d44c6
0,      86016,      86016,     4096,    11368, ab25252b55ec00aebfbe09eb10687b28
0,      90112,      90112,     4096,    10678, 8cd5f838d1d67a52a07f004d1b82b8c8
0,      94208,      94208,     4096,    11603, 49e96069eb3587e181e2191800987955
0,      98304,      98304,     4096,    10986, 17d779b7f5639f29086a3f07f70bb3ba
0,     102400,     102400,     4096,    11747, 2eae87e5975015581784e6ecbbb42a05
0,     106496,     106496,     4096,    10947, 343a0dd688a30a9081b20e9b4e487553
0,     110592,     110592,     4096,    11895, b78b747175fb0b37d2f1f701cb8d7113
0,     114688,     114688,     4096,    11865, 10c98e6ae295f17ea3577087c0c8bef2
0,     118784,     118784,     4096,    11325, 4327be55e56fc4655c22ec2dd3de4639
0,     122880,     122880,     4096,    11597, d2ea98e468e6517abce850ff52400a03
0,     126976,     126976,     4096,    11875, 6dfdac937fc9179ecbeaf305c2ccfc57
0,     131072,     131072,     4096,    11192, f89afa7b2a6d45d62db67e963bb6c63a
0,     135168,     135168,     4096,    11799, 97b74081542b263160e71eb7d8396410
0,     139264,     139264,     4096,    11499, bda3c7b3d18e33d4e8941fd0af608798
0,     143360,     143360,     4096,    10528, 566379b859c80bc32a281dfc818c1bd0
0,     147456,     147456,     4096,     9430, f18f5687c8dae93e111670a37cec489b
0,     151552,     151552,     4096,    10671, 60fd88e1ee1292e4e220881f72988406
0,     155648,     155648,     4096,    10643, 138f6b42017610277820d558a57fa657
0,     159744,     159744,     4096,    10074, b4c7387c9e41b06b3ce5293d044ce6e7
0,     163840,     163840,     4096,    10418, 7ef119a9b30ac1c5aa7ee0a3cfeadeef
0,     167936,     167936,     4096,    10642, 91266b284d8aa54615a7e2c74f2a433a
0,     172032,     172032,     4096,     9646, 52567517dd77e72d6b09431e95b96ffb
0,     176128,     176128,     4096,    10620, db85f770428cf13bf0410e626c81f6cc
0,     180224,     180224,     4096,    10287, f7d85f93ab2cbc33ad448a188c878b08
